<svg width="49" height="49" viewBox="0 0 49 49" fill="none" xmlns="http://www.w3.org/2000/svg">
<rect width="49" height="49" rx="8" fill="#BE83B2"/>
<path fill-rule="evenodd" clip-rule="evenodd" d="M19.9988 16.351C20.4662 16.0834 21.0192 16.099 21.4703 16.3191C23.6791 17.3966 26.3241 17.3977 28.5338 16.3221C28.99 16.1001 29.5499 16.0871 30.0194 16.3629L33.4858 18.3987C33.8005 18.5887 33.9987 18.9368 33.9999 19.3051L33.9999 19.3066C34.0015 25.2607 30.7298 30.8809 25.5741 33.8468C25.2223 34.049 24.7777 34.0491 24.4259 33.8469C19.2538 30.8716 15.9792 25.2259 16 19.253C16.0012 18.8846 16.1994 18.5365 16.5141 18.3466L16.5239 18.3406L19.9988 16.351ZM23.6875 21.8126C23.6875 21.4049 23.6875 21.201 23.7541 21.0402C23.8429 20.8258 24.0133 20.6555 24.2277 20.5667C24.3885 20.5001 24.5923 20.5001 25 20.5001C25.4077 20.5001 25.6115 20.5001 25.7723 20.5667C25.9867 20.6555 26.1571 20.8258 26.2459 21.0402C26.3125 21.201 26.3125 21.4049 26.3125 21.8126V22.6456C26.3125 22.6654 26.3125 22.6753 26.3187 22.6814C26.3248 22.6876 26.3347 22.6876 26.3545 22.6876H27.1875C27.5952 22.6876 27.799 22.6876 27.9598 22.7542C28.1742 22.843 28.3446 23.0133 28.4334 23.2277C28.5 23.3885 28.5 23.5924 28.5 24.0001C28.5 24.4078 28.5 24.6116 28.4334 24.7724C28.3446 24.9868 28.1742 25.1571 27.9598 25.246C27.799 25.3126 27.5952 25.3126 27.1875 25.3126H26.3545C26.3347 25.3126 26.3248 25.3126 26.3187 25.3187C26.3125 25.3249 26.3125 25.3348 26.3125 25.3546V26.1876C26.3125 26.5953 26.3125 26.7991 26.2459 26.9599C26.1571 27.1743 25.9867 27.3446 25.7723 27.4335C25.6115 27.5001 25.4077 27.5001 25 27.5001C24.5923 27.5001 24.3885 27.5001 24.2277 27.4335C24.0133 27.3446 23.8429 27.1743 23.7541 26.9599C23.6875 26.7991 23.6875 26.5953 23.6875 26.1876V25.3546C23.6875 25.3348 23.6875 25.3249 23.6813 25.3187C23.6752 25.3126 23.6653 25.3126 23.6455 25.3126H22.8125C22.4048 25.3126 22.201 25.3126 22.0402 25.246C21.8258 25.1571 21.6554 24.9868 21.5666 24.7724C21.5 24.6116 21.5 24.4078 21.5 24.0001C21.5 23.5924 21.5 23.3885 21.5666 23.2277C21.6554 23.0133 21.8258 22.843 22.0402 22.7542C22.201 22.6876 22.4048 22.6876 22.8125 22.6876H23.6455C23.6653 22.6876 23.6752 22.6876 23.6813 22.6814C23.6875 22.6753 23.6875 22.6654 23.6875 22.6456V21.8126Z" fill="white"/>
</svg>
