<svg width="49" height="49" viewBox="0 0 49 49" fill="none" xmlns="http://www.w3.org/2000/svg">
<rect width="49" height="49" rx="8" fill="#BE83B2"/>
<path d="M25.0002 23.7144C21.8983 23.7144 17.5003 28.6467 17.5003 31.7601C17.5003 33.1623 18.5475 34 20.3026 34C22.2104 34 23.4701 32.9923 25.0002 32.9923C26.5435 32.9923 27.8068 34 29.6978 34C31.4529 34 32.5001 33.1623 32.5001 31.7601C32.5001 28.6467 28.1021 23.7144 25.0002 23.7144ZM19.2471 23.2078C18.8409 21.8156 17.5893 20.914 16.4518 21.1937C15.3144 21.4733 14.7218 22.8285 15.128 24.2207C15.5343 25.6129 16.7858 26.5144 17.9233 26.2348C19.0608 25.9552 19.6534 24.6 19.2471 23.2078ZM22.5565 22.3729C23.7651 22.0459 24.3697 20.3664 23.9072 18.6219C23.4447 16.8774 22.0901 15.7287 20.8815 16.0557C19.6729 16.3828 19.0682 18.0622 19.5307 19.8067C19.9932 21.5513 21.3483 22.7004 22.5565 22.3729ZM33.5482 21.1941C32.4107 20.9144 31.1595 21.816 30.7529 23.2082C30.3466 24.6004 30.9392 25.9556 32.0767 26.2352C33.2142 26.5148 34.4653 25.6133 34.872 24.2211C35.2782 22.8289 34.6856 21.4737 33.5482 21.1941ZM27.4439 22.3729C28.6525 22.7 30.0072 21.5513 30.4697 19.8067C30.9322 18.0622 30.3275 16.3832 29.1189 16.0557C27.9103 15.7283 26.5556 16.8774 26.0932 18.6219C25.6307 20.3664 26.2353 22.0459 27.4439 22.3729Z" fill="white"/>
</svg>
