<svg width="49" height="49" viewBox="0 0 49 49" fill="none" xmlns="http://www.w3.org/2000/svg">
<rect width="49" height="49" rx="8" fill="#BE83B2"/>
<path d="M14.5 22.3388C14.5 19.1423 16.935 16.5 20.004 16.5C21.5883 16.5 23.0048 17.2099 24.0002 18.3333C24.9974 17.2096 26.4199 16.5 27.996 16.5C31.065 16.5 33.5 19.1423 33.5 22.3388C33.5 23.051 33.4051 23.7759 33.2271 24.5H30.2071L29.0988 23.3917C28.7368 23.0297 28.1266 23.1288 27.8977 23.5866L26.863 25.6559L26.0622 24.8551C25.7345 24.5274 25.191 24.5724 24.9216 24.9495L23.2378 27.3069L22.1335 22.5214C21.979 21.852 21.0807 21.7252 20.747 22.3258L18.9374 25.5832L18.073 24.4306C17.7991 24.0655 17.2654 24.0275 16.9426 24.3503L16.2929 25H14.8283C14.6143 24.1458 14.5 23.2564 14.5 22.3388Z" fill="white"/>
<path d="M15.1292 26C16.484 29.845 19.876 32.8668 23.8228 34.363C23.937 34.4063 24.063 34.4063 24.1772 34.363C26.7729 33.379 29.0953 31.5473 30.77 29.3901C31.7099 28.1793 32.4561 26.8524 32.9291 25.5H30.1036C29.9046 25.5 29.7139 25.421 29.5732 25.2803L28.637 24.3441L27.6023 26.4134C27.3734 26.8712 26.7632 26.9703 26.4012 26.6083L25.5638 25.7709L23.7292 28.3394C23.3537 28.8651 22.5334 28.7016 22.3881 28.0721L21.3053 23.38L19.6243 26.4058C19.3604 26.8808 18.6947 26.9263 18.3687 26.4916L17.4459 25.2612L16.9268 25.7803C16.7861 25.921 16.5954 26 16.3964 26H15.1292Z" fill="white"/>
</svg>
