<svg width="49" height="49" viewBox="0 0 49 49" fill="none" xmlns="http://www.w3.org/2000/svg">
<rect width="49" height="49" rx="8" fill="#BE83B2"/>
<path fill-rule="evenodd" clip-rule="evenodd" d="M20.0965 26.7987C20.3161 27.0184 20.3161 27.3746 20.0965 27.5942L16.8297 30.861C16.61 31.0807 16.2539 31.0807 16.0342 30.861C15.8145 30.6414 15.8145 30.2852 16.0342 30.0655L19.301 26.7987C19.5207 26.5791 19.8768 26.5791 20.0965 26.7987Z" fill="white"/>
<path fill-rule="evenodd" clip-rule="evenodd" d="M31.0698 13.7193C30.9937 13.1677 31.6623 12.8354 32.056 13.2292L33.6661 14.8393C34.0599 15.233 33.7275 15.9016 33.1759 15.8254C33.0346 15.8059 32.9035 15.7408 32.8027 15.6399L32.4268 15.264L31.2335 16.4573L33.62 18.8437C33.8397 19.0634 33.8397 19.4196 33.62 19.6392C33.4003 19.8589 33.0442 19.8589 32.8245 19.6392L32.4268 19.2415L24.4718 27.1964C23.9523 27.716 23.1782 27.8259 22.551 27.5263L22.4831 27.5942C21.6044 28.4729 20.1798 28.4729 19.3011 27.5942C18.4224 26.7155 18.4224 25.2909 19.3011 24.4122L19.369 24.3443C19.0694 23.717 19.1793 22.943 19.6988 22.4235L27.6538 14.4685L27.2561 14.0708C27.0364 13.8511 27.0364 13.4949 27.2561 13.2753C27.4757 13.0556 27.8319 13.0556 28.0515 13.2753L28.847 14.0707L30.438 15.6618L31.6313 14.4685L31.2553 14.0926C31.1545 13.9917 31.0893 13.8607 31.0698 13.7193ZM28.4493 15.264L25.2673 18.446L28.4493 21.628L31.6313 18.446L28.4493 15.264ZM20.0966 25.2077C19.6573 25.647 19.6573 26.3593 20.0966 26.7987C20.5359 27.238 21.2482 27.238 21.6876 26.7987L20.0966 25.2077Z" fill="white"/>
</svg>
